<svg width="1024" height="768" version="1.1" xmlns="http://www.w3.org/2000/svg" desc="Created with imagetracer.js version 1.2.6" ><path fill="rgb(1,1,2)" stroke="rgb(1,1,2)" stroke-width="1" opacity="0.9254901960784314" d="M 147 228 L 153.5 228 L 160.5 230 Q 169.4 233.6 175 240.5 L 183 256.5 L 183 271.5 Q 179.4 285.4 169.5 293 L 157 299.5 L 178.5 300 L 200 321.5 L 191.5 323 L 177.5 323 L 176.5 322 L 170 322 L 170 323.5 L 190.5 344 L 222.5 344 L 244 365.5 Q 244.9 368.9 239.5 367 L 237.5 366 L 236.5 367 L 214 367.5 L 235 388.5 L 235 428 L 257 428 L 257 401 L 279.5 401 L 307 427.5 L 308 431.5 L 304 445.5 L 293.5 458 Q 287.1 463.1 277.5 465 L 264.5 465 L 253.5 461 L 245 455 L 237 442.5 L 235 435.5 L 235 429 L 213 429 L 213 366.5 L 191 345.5 L 191 427.5 L 189.5 429 L 169.5 429 L 169 428.5 L 169 323.5 Q 168.3 321.3 164.5 322 L 163.5 323 L 152.5 323 L 148.5 322 L 147 323.5 L 147 424.5 L 169 446.5 L 169 477.5 L 125 434.5 L 125 309.5 L 120.5 305 Q 118.3 305.8 119 303.5 L 113 298.5 L 109.5 294 Q 107.3 294.8 108 292.5 L 102 288 L 100.5 285 Q 98.3 285.8 99 283.5 L 96 282 L 91.5 276 Q 89.3 276.8 90 274.5 L 84 269.5 L 81.5 266 L 68 253.5 L 70.5 250 L 86.5 240 L 145.5 299 L 147 299 L 147 228 Z " /><path fill="rgb(1,1,2)" stroke="rgb(1,1,2)" stroke-width="1" opacity="0.9254901960784314" d="M 52.5 268 L 103 318.5 L 103 412.5 L 58 368.5 Q 58.8 366.3 56.5 367 L 52 361 L 45 355.5 L 27 336.5 L 27 328.5 L 28 327.5 L 29 315.5 L 31.5 309 L 79.5 357 L 81 357 L 81 328.5 L 40 287.5 L 40 285.5 L 48 272.5 L 52.5 268 Z " /><path fill="rgb(1,1,2)" stroke="rgb(1,1,2)" stroke-width="1" opacity="0.9254901960784314" d="M 364.5 300 L 464.5 300 L 466 301.5 L 400 429 L 457.5 429 L 458 430.5 L 441.5 461 L 339.5 461 L 339 459.5 L 405 332 L 347.5 332 L 347 330.5 L 361 303.5 L 364.5 300 Z " /><path fill="rgb(1,1,2)" stroke="rgb(1,1,2)" stroke-width="1" opacity="0.9254901960784314" d="M 480.5 300 L 569.5 300 L 571 301.5 L 571 332 L 518 332 L 518 364 L 565.5 364 L 567.5 365 L 569.5 364 L 571 365.5 L 571 396 L 518 396 L 518 429 L 571 429 L 571 461 L 480.5 461 L 479 459.5 L 479 301.5 L 480.5 300 Z " /><path fill="rgb(1,1,2)" stroke="rgb(1,1,2)" stroke-width="1" opacity="0.9254901960784314" d="M 591.5 300 L 649.5 300 L 650.5 301 L 670.5 302 Q 686.8 305.2 695 316.5 L 702 330.5 L 703 335.5 L 703 352.5 Q 699.5 368 688.5 376 L 678 381.5 Q 693.1 384.4 700 395.5 Q 707.2 405.8 706 424.5 L 704 433.5 L 700 442.5 L 690.5 453 L 677.5 459 L 663.5 460 L 662.5 461 L 590 461 L 590 301.5 L 591.5 300 Z M 629 330 L 629 367 L 650 366 L 659 362 L 663 355 L 663 342 L 661 338 L 652 331 L 629 330 Z M 629 395 L 629 433 L 647 433 L 659 430 Q 664 427 666 420 Q 668 408 663 403 Q 659 398 653 396 L 629 395 Z " /><path fill="rgb(1,1,2)" stroke="rgb(1,1,2)" stroke-width="1" opacity="0.9254901960784314" d="M 721 300 L 775.5 300 L 776.5 301 L 795.5 302 L 811.5 307 Q 820.9 311.6 827 319.5 Q 833.5 327.5 836 339.5 L 837 361.5 L 835 371.5 L 831 381.5 L 820.5 394 L 806 402.5 L 840 459 Q 843 460.3 842 456.5 L 875 358.5 L 876 352.5 L 881 340.5 L 883 331.5 L 887 322.5 L 893 301 L 895.5 300 L 942.5 300 L 951 321.5 L 951 324.5 L 996 461 L 954.5 461 L 953 459.5 L 944 429 L 892.5 429 L 892 430.5 L 883 459.5 L 881.5 461 L 795.5 461 L 793 458.5 L 760.5 401 L 760 459.5 L 758.5 461 L 721.5 461 L 721 460.5 L 721 300 Z M 760 333 L 760 377 L 782 376 L 790 372 Q 795 368 797 361 Q 799 348 794 343 L 784 334 L 780 333 L 760 333 Z M 918 348 L 902 397 L 903 398 L 933 398 L 921 356 L 918 348 Z " /><path fill="rgb(1,1,2)" stroke="rgb(1,1,2)" stroke-width="1" opacity="0.9254901960784314" d="M 27 369 L 35 374.5 L 37.5 378 L 41 380.5 L 43.5 384 L 46 385.5 L 49.5 390 L 52 391.5 L 54 394.5 L 58 397.5 L 58 399 L 60 399 Q 58.9 401.7 61.5 401 L 64 405 L 66 405 Q 64.9 407.7 67.5 407 L 72.5 413 L 76 415.5 L 78.5 419 L 81 420.5 L 84.5 425 L 87 426.5 L 89 429.5 L 93 432.5 L 93 434 L 95 434 Q 93.9 436.7 96.5 436 L 101.5 442 L 105 444.5 Q 104.3 446.8 106.5 446 L 169 508.5 L 169 539.5 L 27 398.5 L 27 369 Z " /><path fill="rgb(0,0,0)" stroke="rgb(0,0,0)" stroke-width="1" opacity="0" d="M 0 0 L 1024 0 L 1024 768 L 0 768 L 0 0 Z M 147 228 L 147 299 L 146 299 L 87 240 L 71 250 L 68 254 L 82 266 L 84 270 L 90 275 Q 89 277 92 276 L 96 282 L 99 284 Q 98 286 101 285 L 102 288 L 108 293 Q 107 295 110 294 L 113 299 L 119 304 Q 118 306 121 305 L 125 310 L 125 435 L 169 478 L 169 447 L 147 425 L 147 324 L 149 322 L 153 323 L 164 323 L 165 322 Q 168 321 169 324 L 169 429 L 170 429 L 190 429 L 191 428 L 191 346 L 213 367 L 213 429 L 235 429 L 235 436 L 237 443 L 245 455 L 254 461 L 265 465 L 278 465 Q 287 463 294 458 L 304 446 L 308 432 L 307 428 L 280 401 L 257 401 L 257 428 L 235 428 L 235 389 L 214 368 L 237 367 L 238 366 L 240 367 Q 245 369 244 366 L 223 344 L 191 344 L 170 324 L 170 322 L 177 322 L 178 323 L 192 323 L 200 322 L 179 300 L 157 300 L 170 293 Q 179 285 183 272 L 183 257 L 175 241 Q 169 234 161 230 L 154 228 L 147 228 Z M 53 268 L 48 273 L 40 286 L 40 288 L 81 329 L 81 357 L 80 357 L 32 309 L 29 316 L 28 328 L 27 329 L 27 337 L 45 356 L 52 361 L 57 367 Q 59 366 58 369 L 103 413 L 103 319 L 53 268 Z M 365 300 L 361 304 L 347 331 L 348 332 L 405 332 L 339 460 L 340 461 L 442 461 L 458 431 L 458 429 L 400 429 L 466 302 L 465 300 L 365 300 Z M 481 300 L 479 302 L 479 460 L 481 461 L 571 461 L 571 429 L 518 429 L 518 396 L 571 396 L 571 366 L 570 364 L 568 365 L 566 364 L 518 364 L 518 332 L 571 332 L 571 302 L 570 300 L 481 300 Z M 592 300 L 590 302 L 590 461 L 663 461 L 664 460 L 678 459 L 691 453 L 700 443 L 704 434 L 706 425 Q 707 406 700 396 Q 693 384 678 382 L 689 376 Q 699 368 703 353 L 703 336 L 702 331 L 695 317 Q 687 305 671 302 L 651 301 L 650 300 L 592 300 Z M 721 300 L 721 461 L 722 461 L 759 461 L 760 460 L 761 401 L 793 459 L 796 461 L 882 461 L 883 460 L 892 431 L 893 429 L 944 429 L 953 460 L 955 461 L 996 461 L 951 325 L 951 322 L 943 300 L 896 300 L 893 301 L 887 323 L 883 332 L 881 341 L 876 353 L 875 359 L 842 457 Q 843 460 840 459 L 806 403 L 821 394 L 831 382 L 835 372 L 837 362 L 836 340 Q 833 328 827 320 Q 821 312 812 307 L 796 302 L 777 301 L 776 300 L 721 300 Z M 27 369 L 27 399 L 169 540 L 169 509 L 107 446 Q 104 447 105 445 L 102 442 L 97 436 Q 94 437 95 434 L 93 434 L 93 433 L 89 430 L 87 427 L 85 425 L 81 421 L 79 419 L 76 416 L 73 413 L 68 407 Q 65 408 66 405 L 64 405 L 62 401 Q 59 402 60 399 L 58 399 L 58 398 L 54 395 L 52 392 L 50 390 L 46 386 L 44 384 L 41 381 L 38 378 L 35 375 L 27 369 Z " /><path fill="rgb(0,0,0)" stroke="rgb(0,0,0)" stroke-width="1" opacity="0" d="M 629 330 L 651.5 331 L 661 337.5 L 663 341.5 L 663 354.5 L 658.5 362 L 649.5 366 L 629 367 L 629 330 Z " /><path fill="rgb(0,0,0)" stroke="rgb(0,0,0)" stroke-width="1" opacity="0" d="M 760 333 L 779.5 333 L 783.5 334 L 794 342.5 Q 798.7 348.4 797 360.5 Q 795.2 368.1 789.5 372 L 781.5 376 L 760 377 L 760 333 Z " /><path fill="rgb(0,0,0)" stroke="rgb(0,0,0)" stroke-width="1" opacity="0" d="M 917.5 348 L 921 355.5 L 933 398 L 902.5 398 L 902 396.5 L 917.5 348 Z " /><path fill="rgb(0,0,0)" stroke="rgb(0,0,0)" stroke-width="1" opacity="0" d="M 629 395 L 652.5 396 Q 659.5 397.6 663 402.5 Q 667.5 408 666 419.5 Q 664.2 426.7 658.5 430 L 646.5 433 L 629 433 L 629 395 Z " /></svg>